<?xml version="1.0" encoding="UTF-8" standalone="no"?>
<!-- Created with Inkscape (http://www.inkscape.org/) -->

<svg
   width="256"
   height="256"
   viewBox="0 0 67.733332 67.733332"
   version="1.1"
   id="svg1"
   inkscape:version="1.4.2 (ebf0e940d0, 2025-05-08)"
   sodipodi:docname="favicon.svg"
   inkscape:export-filename="favicon.png"
   inkscape:export-xdpi="96"
   inkscape:export-ydpi="96"
   xmlns:inkscape="http://www.inkscape.org/namespaces/inkscape"
   xmlns:sodipodi="http://sodipodi.sourceforge.net/DTD/sodipodi-0.dtd"
   xmlns="http://www.w3.org/2000/svg"
   xmlns:svg="http://www.w3.org/2000/svg">
  <sodipodi:namedview
     id="namedview1"
     pagecolor="#505050"
     bordercolor="#eeeeee"
     borderopacity="1"
     inkscape:showpageshadow="0"
     inkscape:pageopacity="0"
     inkscape:pagecheckerboard="0"
     inkscape:deskcolor="#505050"
     inkscape:document-units="mm"
     inkscape:zoom="0.70710678"
     inkscape:cx="590.43416"
     inkscape:cy="283.54982"
     inkscape:window-width="2540"
     inkscape:window-height="1380"
     inkscape:window-x="0"
     inkscape:window-y="0"
     inkscape:window-maximized="1"
     inkscape:current-layer="layer1" />
  <defs
     id="defs1" />
  <g
     inkscape:label="Layer 1"
     inkscape:groupmode="layer"
     id="layer1">
    <path
       id="rect2"
       style="fill:#483768;fill-opacity:1;stroke:#42315b;stroke-width:5.23977;stroke-opacity:1"
       d="M 31.272908,2.7947117 C 28.882791,2.0997368 26.399038,3.4644535 25.704063,5.854565 l -2.501516,8.603022 -8.603561,-2.501672 C 12.208879,11.260938 9.7251366,12.625659 9.0301617,15.015769 L 2.7947122,36.460265 c -0.6949755,2.390113 0.6697639,4.873851 3.0598473,5.568831 l 8.6035735,2.501671 -2.501676,8.603568 c -0.694977,2.390109 0.669764,4.873855 3.059868,5.568832 l 21.444484,6.235449 c 2.390116,0.694976 4.873858,-0.669742 5.568834,-3.059856 l 2.501667,-8.603567 8.603029,2.501514 c 2.390116,0.694974 4.873857,-0.669743 5.568832,-3.059855 l 6.23545,-21.444497 c 0.694977,-2.39011 -0.669762,-4.87385 -3.059857,-5.568829 L 53.275735,23.20201 55.777249,14.598989 C 56.472225,12.208878 55.107487,9.7251373 52.717401,9.0301582 Z" />
  </g>
</svg>
